<svg xmlns="http://www.w3.org/2000/svg" id="Layer_1" data-name="Layer 1" width="1134" height="86" viewBox="0 0 1134 86"><defs><style>.cls-1{fill:#fff}.cls-2{fill:#99999a}.cls-3{fill:#dadfe1}.cls-4{fill:#007cba}.cls-5{fill:#00a1df}.cls-6{fill:#39b54a}.cls-7{fill:none;stroke:#00a1df;stroke-miterlimit:10;stroke-width:1.22px}</style></defs><title>nav_svg_spirte</title><path class="cls-1" d="M87.78 47.61l-5.42-11.55h-2.82v18.56h2.82V42.21l4.38 9.05h2.09l4.27-9.05v12.41h2.82V36.06H93.1l-5.32 11.55zm18.72 1.85a2.63 2.63 0 0 1-2.74 2.95c-1.49 0-2.66-.89-2.66-2.95V41.4h-2.66v8.45a4.86 4.86 0 0 0 1.33 3.73 4.6 4.6 0 0 0 3.26 1.2 4.72 4.72 0 0 0 3.52-1.49v1.33h2.61V41.4h-2.66v8.06zm7.87 1.36V36.06h-2.66V51a3.37 3.37 0 0 0 3.62 3.65H117v-2.3h-1.2a1.28 1.28 0 0 1-1.43-1.53zm9-9.57c-3.39 0-5.61 2.48-5.61 6.75 0 5 2.63 6.78 5.95 6.78a6.21 6.21 0 0 0 5-2.06L127 51.13a3.94 3.94 0 0 1-3.21 1.36c-2.16 0-3.36-1.43-3.36-3.7H129v-1.18c0-3.76-2.08-6.36-5.63-6.36zm-3 5.68a4.19 4.19 0 0 1 .34-1.8 2.76 2.76 0 0 1 2.63-1.67 2.72 2.72 0 0 1 2.66 1.67 4.13 4.13 0 0 1 .36 1.8h-5.96zm21.74-1.41a6.16 6.16 0 0 0-3.47-1.38l-2.11-.31a4.15 4.15 0 0 1-2.09-.86 2.22 2.22 0 0 1-.7-1.72c0-1.64 1.2-2.9 3.39-2.9a5.45 5.45 0 0 1 4 1.43L143 38a7.73 7.73 0 0 0-5.76-2.11c-3.86 0-6.21 2.22-6.21 5.45a4.62 4.62 0 0 0 1.36 3.55 6.34 6.34 0 0 0 3.52 1.48l2.19.31a3.21 3.21 0 0 1 2 .78 2.49 2.49 0 0 1 .73 1.93c0 1.8-1.41 2.84-3.83 2.84a6.13 6.13 0 0 1-4.75-1.77l-1.88 1.85a8.4 8.4 0 0 0 6.57 2.45c3.89 0 6.68-2 6.68-5.45a4.86 4.86 0 0 0-1.51-3.79zm8.52-4.27a5.29 5.29 0 0 0-3.94 1.56c-1.25 1.3-1.56 3-1.56 5.19s.31 3.91 1.56 5.21a5.29 5.29 0 0 0 3.94 1.57 5.35 5.35 0 0 0 4-1.57c1.25-1.3 1.56-3 1.56-5.21s-.31-3.89-1.56-5.19a5.35 5.35 0 0 0-4-1.56zm2 10.38a2.72 2.72 0 0 1-2 .78 2.65 2.65 0 0 1-1.93-.78c-.81-.81-.91-2.19-.91-3.62s.1-2.82.91-3.62a2.63 2.63 0 0 1 1.93-.76 2.7 2.7 0 0 1 2 .76c.81.81.91 2.19.91 3.62s-.14 2.81-.95 3.61zm6.22-12.03v2h-1.51v2h1.51v11h2.66v-11h2.63v-2h-2.63v-1.9a1.34 1.34 0 0 1 1.49-1.51h1.18v-2.27h-1.67a3.44 3.44 0 0 0-3.66 3.68zM170 37.62h-2.7v4h-1.51v2h1.51v7.27a3.44 3.44 0 0 0 3.62 3.68h1.59v-2.22h-1.09a1.35 1.35 0 0 1-1.42-1.53v-7.15h2.55v-2H170v-4zm5.81 2.05a1.42 1.42 0 0 0-.76-.75 1.46 1.46 0 0 0-1.11 0 1.45 1.45 0 0 0-.46.3 1.41 1.41 0 0 0-.31.45 1.37 1.37 0 0 0-.11.56 1.4 1.4 0 0 0 .11.57 1.43 1.43 0 0 0 .31.45 1.41 1.41 0 0 0 .46.3 1.49 1.49 0 0 0 1.11 0 1.39 1.39 0 0 0 .45-.3 1.46 1.46 0 0 0 .31-.45 1.4 1.4 0 0 0 .11-.57 1.37 1.37 0 0 0-.11-.56zm-.23 1a1.19 1.19 0 0 1-.25.39 1.15 1.15 0 0 1-.37.26 1.14 1.14 0 0 1-.46.09 1.15 1.15 0 0 1-.84-.35 1.19 1.19 0 0 1-.25-.39 1.29 1.29 0 0 1-.09-.49 1.26 1.26 0 0 1 .09-.48 1.16 1.16 0 0 1 1.09-.73 1.14 1.14 0 0 1 .46.09 1.16 1.16 0 0 1 .62.64 1.25 1.25 0 0 1 .09.48 1.29 1.29 0 0 1-.1.54z"/><path class="cls-1" d="M175 40.21a.4.4 0 0 0 .13-.33.44.44 0 0 0-.14-.36.68.68 0 0 0-.44-.12h-.64v1.66h.26v-.71h.27l.45.72h.28l-.48-.74a.57.57 0 0 0 .31-.12zm-.57-.07h-.23v-.53h.59a.22.22 0 0 1 .08.08.24.24 0 0 1 0 .13.28.28 0 0 1 0 .15.22.22 0 0 1-.1.08h-.31z"/><path class="cls-2" d="M71.14 45.32a22.07 22.07 0 1 1-22.07-22 22 22 0 0 1 22.07 22z"/><circle class="cls-3" cx="49.08" cy="45.45" r="20.13"/><path class="cls-4" d="M43.48 55.17A10.1 10.1 0 0 1 37.83 46a10.4 10.4 0 0 1 1.74-5.79L46.83 51h4.39l7.26-10.82A10.4 10.4 0 0 1 60.22 46a10.15 10.15 0 0 1-5 8.84l1.4 5.35a16.52 16.52 0 0 0 .87-28.9l-8.43 13-8.33-13.06a16.52 16.52 0 0 0 1.37 29.24z"/><path class="cls-2" d="M285.11 49.88l-6.4-8.53.8-.6 5.6 7.47 5.6-7.47.8.6-6.4 8.53z"/><path class="cls-1" d="M333.36 40.75l6.4 8.53-.8.6-5.6-7.46-5.6 7.46-.8-.6 6.4-8.53z"/><path class="cls-5" d="M390.47 58.43a13.11 13.11 0 1 1 13.11-13.11 13.12 13.12 0 0 1-13.11 13.11zm0-25a11.89 11.89 0 1 0 11.89 11.89 11.9 11.9 0 0 0-11.89-11.89z"/><path class="cls-5" d="M388.68 52.46l-.86-.87 6.06-6.06-6.48-6.49.86-.86 7.35 7.35-6.93 6.93z"/><path class="cls-6" d="M434.94 46.26l.77-.94 6.68 5.38 10.27-12.48.95.76-11.03 13.43-7.64-6.15z"/><path class="cls-5" d="M505 29.94a15.37 15.37 0 1 0 15.4 15.38A15.43 15.43 0 0 0 505 29.94zm0 29.55a14.09 14.09 0 1 1 14-14.08 14.09 14.09 0 0 1-14 14.09z"/><path class="cls-5" d="M501 52.21a7.07 7.07 0 0 1-3.95-6.43 7.28 7.28 0 0 1 1.22-4.05l5.08 7.57h3.07l5.08-7.57a7.28 7.28 0 0 1 1.22 4.05 7.1 7.1 0 0 1-3.45 6.22l1 3.75a11.56 11.56 0 0 0 .61-20.22L505 44.6l-5.84-9.14a11.56 11.56 0 0 0 1 20.46zm31.05-5.29l-3.8-8.08h-1.97v12.99h1.97v-8.69l3.07 6.34h1.46l2.99-6.34v8.69h1.97V38.84h-1.97l-3.72 8.08zm13.09 1.3a1.84 1.84 0 0 1-1.92 2.06 1.8 1.8 0 0 1-1.86-2.06v-5.64h-1.86v5.91a3.4 3.4 0 0 0 .93 2.61 3.22 3.22 0 0 0 2.28.84 3.3 3.3 0 0 0 2.46-1v.93H547v-9.29h-1.86v5.64zm5.51.95V38.84h-1.86v10.43a2.36 2.36 0 0 0 2.54 2.56h1.15v-1.59h-.82a.89.89 0 0 1-1.01-1.07zm6.35-6.7c-2.37 0-3.92 1.73-3.92 4.73 0 3.52 1.84 4.74 4.16 4.74a4.35 4.35 0 0 0 3.47-1.44l-1.19-1.11a2.76 2.76 0 0 1-2.24.95 2.28 2.28 0 0 1-2.35-2.59h6v-.83c-.06-2.63-1.5-4.45-3.93-4.45zm-2.08 4a2.93 2.93 0 0 1 .24-1.26A1.93 1.93 0 0 1 557 44a1.91 1.91 0 0 1 1.83 1.17 2.89 2.89 0 0 1 .26 1.26h-4.16zm15.14-1.01a4.31 4.31 0 0 0-2.43-1l-1.48-.22a2.9 2.9 0 0 1-1.46-.6 1.55 1.55 0 0 1-.49-1.2 2.07 2.07 0 0 1 2.37-2 3.81 3.81 0 0 1 2.83 1l1.26-1.24a5.41 5.41 0 0 0-4-1.48c-2.7 0-4.34 1.55-4.34 3.81a3.23 3.23 0 0 0 1 2.48 4.44 4.44 0 0 0 2.46 1l1.53.22a2.25 2.25 0 0 1 1.42.55 1.74 1.74 0 0 1 .51 1.35c0 1.26-1 2-2.68 2a4.29 4.29 0 0 1-3.32-1.24l-1.31 1.3a5.88 5.88 0 0 0 4.6 1.72c2.72 0 4.67-1.42 4.67-3.81a3.4 3.4 0 0 0-1.14-2.64zm5.94-2.99a3.7 3.7 0 0 0-2.76 1.09 4.86 4.86 0 0 0-1.09 3.63 4.88 4.88 0 0 0 1.09 3.65 3.7 3.7 0 0 0 2.76 1.1 3.74 3.74 0 0 0 2.77-1.1 4.88 4.88 0 0 0 1.09-3.65 4.86 4.86 0 0 0-1.09-3.63 3.74 3.74 0 0 0-2.77-1.09zm1.37 7.26a1.9 1.9 0 0 1-1.37.55 1.85 1.85 0 0 1-1.35-.55 3.57 3.57 0 0 1-.64-2.54 3.57 3.57 0 0 1 .64-2.54 1.84 1.84 0 0 1 1.35-.53 1.89 1.89 0 0 1 1.37.53 3.58 3.58 0 0 1 .64 2.54 3.58 3.58 0 0 1-.61 2.54zm4.41-8.41v1.42h-1.06v1.42h1.06v7.66h1.86v-7.66h1.84v-1.42h-1.84v-1.33a.94.94 0 0 1 1-1.08h.82v-1.59h-1.17a2.41 2.41 0 0 0-2.51 2.58zm7.77-1.39h-1.86v2.81h-1.06v1.42h1.06v5.09a2.41 2.41 0 0 0 2.53 2.57h1.11v-1.58h-.77a.94.94 0 0 1-1-1.08v-5h1.79v-1.42h-1.79v-2.81zm4.1 1.44a1 1 0 0 0-.53-.52 1 1 0 0 0-.77 0 1 1 0 0 0-.32.21 1 1 0 0 0-.22.31 1 1 0 0 0-.08.39 1 1 0 0 0 .08.4 1 1 0 0 0 .22.32 1 1 0 0 0 .32.21 1 1 0 0 0 .77 0 1 1 0 0 0 .32-.21 1 1 0 0 0 .22-.32 1 1 0 0 0 .08-.4 1 1 0 0 0-.09-.39zm-.16.73a.83.83 0 0 1-.17.27.81.81 0 0 1-.26.18.79.79 0 0 1-.32.07.81.81 0 0 1-.59-.25.83.83 0 0 1-.15-.27.9.9 0 0 1-.06-.34.88.88 0 0 1 .06-.33.81.81 0 0 1 .76-.51.8.8 0 0 1 .32.07.81.81 0 0 1 .43.45.88.88 0 0 1 .06.33.9.9 0 0 1-.08.33z"/><path class="cls-5" d="M593.11 41.74a.28.28 0 0 0 .09-.23.31.31 0 0 0-.1-.25.48.48 0 0 0-.31-.08h-.45v1.17h.18v-.5h.19l.32.5h.19l-.33-.51a.4.4 0 0 0 .22-.1zm-.4 0h-.19v-.41h.41l.07.08a.17.17 0 0 1 0 .09.2.2 0 0 1 0 .11.15.15 0 0 1-.07.06h-.22zm87.67 16.08a17.52 17.52 0 0 1-9.47-2.82L669 53.81l2.26.26a11.49 11.49 0 0 0 7.4-1.62 6.52 6.52 0 0 1-4.66-4.34l-.27-.84.87.16.32.05a6.54 6.54 0 0 1-3-5.52v-.89l.78.36a5.51 5.51 0 0 0 .73.34 6.53 6.53 0 0 1-.58-7.4l.38-.65.48.59a16.56 16.56 0 0 0 11.32 6 6.62 6.62 0 0 1 0-.8A6.52 6.52 0 0 1 696 34.86a11.45 11.45 0 0 0 3.37-1.33l1.19-.71-.42 1.32a6.49 6.49 0 0 1-1.24 2.23 11.37 11.37 0 0 0 1.33-.49l1.66-.73-1 1.51a12.65 12.65 0 0 1-2.89 3.05v.52a17.42 17.42 0 0 1-17.62 17.59zm-7-2.63a16.54 16.54 0 0 0 23.59-15v-1l.23-.17a11.6 11.6 0 0 0 1.77-1.58 12.47 12.47 0 0 1-1.85.36l-2.44.29 2.11-1.26a5.51 5.51 0 0 0 1.77-1.7 12.52 12.52 0 0 1-2.57.8l-.29.06-.2-.21a5.48 5.48 0 0 0-9.32 5l.16.68h-.7a17.61 17.61 0 0 1-12.22-5.84 5.48 5.48 0 0 0 2 6.62l1.52 1-1.83-.06a6.5 6.5 0 0 1-2.11-.42 5.48 5.48 0 0 0 4.33 4.59l2.17.44-2.14.59a6.3 6.3 0 0 1-2 .22 5.47 5.47 0 0 0 4.79 3h1.48l-1.16.91a12.47 12.47 0 0 1-7.13 2.68zm115.8-13.94v-3.41h-4.55l-5-4.3-5.46 4.3H770v3.29l-3 2.39v13.77h25.26V43.51zm1.93 14.95H768V44.05l3-2.39v-2.73h3.46l5-4 4.65 4h3.85v2.87l3 2.26v12.13zm-19-9.5l7.46 5 7.49-5v-6.56h-15v6.56zm2.89-4.95h9.29v1.14H775v-1.14zm0 3.17h9.29v1.14H775v-1.14z"/><path class="cls-5" d="M826.66 57.29c-.35 0-8.37-.08-10.92-.32l-.45-.06a5.34 5.34 0 0 1-3.48-1.5 7.28 7.28 0 0 1-1.44-3.53 48.27 48.27 0 0 1-.33-5.26V44.2a48.54 48.54 0 0 1 .32-5.25 7.31 7.31 0 0 1 1.45-3.55 5 5 0 0 1 3.39-1.52h.19c4.47-.32 11.18-.33 11.25-.33s6.79 0 11.23.32h.22a5 5 0 0 1 3.4 1.53 7.29 7.29 0 0 1 1.44 3.53 48.54 48.54 0 0 1 .32 5.25v2.42a48.54 48.54 0 0 1-.32 5.25 7.3 7.3 0 0 1-1.45 3.55 5 5 0 0 1-3.4 1.52h-.19c-4.45.36-11.16.37-11.23.37zm0-22.46c-.08 0-6.74 0-11.14.32h-.19a3.72 3.72 0 0 0-2.59 1.13 6.08 6.08 0 0 0-1.09 2.81 48.26 48.26 0 0 0-.31 5.08v2.42a47.88 47.88 0 0 0 .32 5.09 6.09 6.09 0 0 0 1.09 2.79 4.1 4.1 0 0 0 2.7 1.11l.48.07c2.44.23 10.66.31 10.74.31s6.73 0 11.12-.33h.19a3.71 3.71 0 0 0 2.59-1.13 6.06 6.06 0 0 0 1.1-2.81 48.26 48.26 0 0 0 .31-5.08V44.2a48 48 0 0 0-.31-5.08 6.1 6.1 0 0 0-1.09-2.8 3.73 3.73 0 0 0-2.58-1.14h-.22c-4.38-.34-11.05-.35-11.11-.35z" id="Lozenge"/><path class="cls-5" d="M823.36 49.55l8.64-4.46-8.63-4.5v9zm-175.44 7.74h-19.13a2.23 2.23 0 0 1-2.25-2.21V35.74a2.23 2.23 0 0 1 2.25-2.21h19.12a2.23 2.23 0 0 1 2.25 2.21v19.35a2.23 2.23 0 0 1-2.24 2.2zm-19.13-22.58a1.05 1.05 0 0 0-1.07 1v19.38a1.05 1.05 0 0 0 1.07 1h19.12a1.05 1.05 0 0 0 1.07-1V35.74a1.05 1.05 0 0 0-1.07-1h-19.12z"/><path class="cls-5" d="M630.55 42.83h3.39v10.2h-3.39zm1.69-1.39a1.77 1.77 0 1 1 1.94-1.76 1.75 1.75 0 0 1-1.94 1.76zM646.16 53h-3.39v-5.43c0-1.37-.49-2.31-1.72-2.31a1.85 1.85 0 0 0-1.74 1.24 2.32 2.32 0 0 0-.11.83V53h-3.39V42.8h3.39v1.45a3.36 3.36 0 0 1 3.05-1.69c2.23 0 3.9 1.46 3.9 4.59V53zm96.4-19.46h-20.1a1.83 1.83 0 0 0-1.83 1.83v20.1a1.83 1.83 0 0 0 1.83 1.83h20.1a1.83 1.83 0 0 0 1.83-1.83V35.36a1.83 1.83 0 0 0-1.83-1.82zm.67 21.93a.67.67 0 0 1-.67.67h-5.76V48h2.94l.44-3.41h-3.38v-2.22a1.41 1.41 0 0 1 1.69-1.66h1.81v-3a24.13 24.13 0 0 0-2.63-.13c-2.6 0-4.39 1.59-4.39 4.51v2.51h-2.94V48h2.94v8.17h-10.82a.67.67 0 0 1-.67-.67V35.36a.67.67 0 0 1 .67-.67h20.1a.67.67 0 0 1 .67.67v20.1z"/><path class="cls-7" d="M959.08 38.61l6.92 6.92-6.5 6.49"/><path class="cls-1" transform="rotate(45 1000.999 45.317)" d="M985.22 44.07h31.56v2.5h-31.56z"/><path class="cls-1" transform="rotate(-45 1001.003 45.321)" d="M985.22 44.07h31.56v2.5h-31.56z"/><path class="cls-5" d="M1050.39 52.46l-7.35-7.35 6.93-6.93.87.86-6.07 6.07 6.49 6.48-.87.87z"/><path class="cls-5" d="M1043.91 44.71h18.1v1.22h-18.1z"/><path class="cls-1" d="M1090.38 37.32h25.25v2h-25.25zm0 7h25.25v2h-25.25zm0 7h25.25v2h-25.25zm-857.74-1.26a8.66 8.66 0 0 0-.16-11.2 9.18 9.18 0 0 0-12.68-1.16 8.56 8.56 0 0 0-3.15 6 8.69 8.69 0 0 0 2.12 6.44 9.2 9.2 0 0 0 11.31 2.08l3.08 3.49 2.59-2.11zm-8.71 1.8a7.89 7.89 0 0 1-4.25-2.55 7.48 7.48 0 0 1-1.82-5.54 7.36 7.36 0 0 1 2.71-5.12 8 8 0 0 1 11 1 7.44 7.44 0 0 1-.17 10 6.54 6.54 0 0 1-1.56 1.27 7.83 7.83 0 0 1-5.91.94z"/><path class="cls-5" d="M883 48.76a2.06 2.06 0 0 0-2.9-.3l-.55.46c-.38.32-.76.64-1.16.92a1.35 1.35 0 0 1-1.08.28 4.24 4.24 0 0 1-1.41-1.34l-.37-.45a10.58 10.58 0 0 1-1.74-2.56 1.4 1.4 0 0 1 .47-2.09l.46-.34c.19-.13.38-.27.54-.4a2.34 2.34 0 0 0 .35-3.29l-1.78-2.2a1.78 1.78 0 0 0-2.5-.26 7.48 7.48 0 0 0-3.07 5.69 10 10 0 0 0 2.54 6.41l2.82 3.48a7.81 7.81 0 0 0 5.45 2.87h.66a7 7 0 0 0 4.69-1.75c1-.87 1.17-1.93.5-2.76zm.76 4.39a6 6 0 0 1-4.58 1.46 6.78 6.78 0 0 1-4.73-2.49l-2.83-3.49a9.13 9.13 0 0 1-2.31-5.75A6.63 6.63 0 0 1 872 38a.74.74 0 0 1 1 .11l1.78 2.2a1.31 1.31 0 0 1-.19 1.84c-.15.12-.31.24-.48.36l-.5.37a2.39 2.39 0 0 0-.78 3.33 11.53 11.53 0 0 0 1.9 2.81l.34.42a4.83 4.83 0 0 0 1.93 1.65 2.25 2.25 0 0 0 2-.4c.44-.3.84-.64 1.24-1l.53-.45a1 1 0 0 1 .75-.22 1 1 0 0 1 .69.38l1.94 2.4a1 1 0 0 1-.36 1.35zm-5.01-17.47a.47.47 0 0 0-.49.43.46.46 0 0 0 .43.49 8.65 8.65 0 0 1 8.07 8.62 8.75 8.75 0 0 1-.07 1.07.46.46 0 0 0 .4.51h.06a.46.46 0 0 0 .46-.4 9.82 9.82 0 0 0 .07-1.18 9.57 9.57 0 0 0-8.93-9.54z"/><path class="cls-5" d="M878.13 39.16a6.05 6.05 0 0 1 6 6 6 6 0 0 1-.17 1.44.46.46 0 0 0 .34.56h.11a.46.46 0 0 0 .45-.35 7 7 0 0 0-6.77-8.62.46.46 0 1 0 .04.97zm52.51 10.9a8.66 8.66 0 0 0-.16-11.2 9.18 9.18 0 0 0-12.68-1.16 8.56 8.56 0 0 0-3.15 6 8.69 8.69 0 0 0 2.12 6.44 9.2 9.2 0 0 0 11.31 2.08l3.08 3.49 2.59-2.11zm-8.71 1.8a7.89 7.89 0 0 1-4.25-2.55 7.48 7.48 0 0 1-1.82-5.54 7.36 7.36 0 0 1 2.71-5.12 8 8 0 0 1 11 1 7.44 7.44 0 0 1-.17 10 6.54 6.54 0 0 1-1.56 1.27 7.83 7.83 0 0 1-5.91.94z"/></svg>